<?xml version="1.0" encoding="utf-8"?>
<!-- Generator: Adobe Illustrator 27.5.0, SVG Export Plug-In . SVG Version: 6.00 Build 0)  -->
<svg version="1.1" id="Capa_1" xmlns="http://www.w3.org/2000/svg" xmlns:xlink="http://www.w3.org/1999/xlink" x="0px" y="0px"
	 viewBox="0 0 48 48" style="enable-background:new 0 0 48 48;" xml:space="preserve">
<style type="text/css">
	.st0{fill:#3661ED;}
</style>
<path class="st0" d="M24,31.5c2.4,0,4.4-0.8,6-2.5c1.7-1.7,2.5-3.7,2.5-6c0-2.4-0.8-4.4-2.5-6c-1.7-1.7-3.7-2.5-6-2.5
	c-2.4,0-4.4,0.8-6,2.5c-1.6,1.7-2.5,3.7-2.5,6c0,2.4,0.8,4.4,2.5,6C19.6,30.7,21.6,31.5,24,31.5z M24,27.8c-1.3,0-2.5-0.5-3.4-1.4
	s-1.4-2.1-1.4-3.4c0-1.3,0.5-2.5,1.4-3.4s2.1-1.4,3.4-1.4c1.3,0,2.5,0.5,3.4,1.4s1.4,2.1,1.4,3.4c0,1.3-0.5,2.5-1.4,3.4
	S25.3,27.8,24,27.8z M24,39.2c-4.8,0-9.2-1.3-13.1-4c-3.9-2.6-7-6.1-9.2-10.4c-0.1-0.2-0.2-0.5-0.3-0.9c-0.1-0.3-0.1-0.7-0.1-1
	s0-0.6,0.1-1c0.1-0.3,0.2-0.6,0.3-0.9c2.2-4.2,5.3-7.7,9.2-10.3s8.3-4,13.1-4s9.2,1.3,13.1,4c3.9,2.6,7,6.1,9.2,10.3
	c0.1,0.3,0.2,0.6,0.3,0.9c0.1,0.3,0.1,0.7,0.1,1s0,0.6-0.1,1c-0.1,0.3-0.2,0.6-0.3,0.9c-2.2,4.3-5.3,7.7-9.2,10.4
	C33.2,37.8,28.8,39.2,24,39.2z M24,35c4,0,7.7-1.1,11.1-3.3c3.4-2.2,5.9-5.1,7.7-8.7c-1.8-3.6-4.3-6.5-7.7-8.7
	C31.7,12.1,28,11,24,11c-4,0-7.7,1.1-11.1,3.3S7,19.4,5.2,23c1.8,3.6,4.4,6.5,7.7,8.7C16.3,33.9,20,35,24,35z"/>
</svg>
