<?xml version="1.0" encoding="utf-8"?>
<!-- Generator: Adobe Illustrator 27.5.0, SVG Export Plug-In . SVG Version: 6.00 Build 0)  -->
<svg version="1.1" id="Capa_1" xmlns="http://www.w3.org/2000/svg" xmlns:xlink="http://www.w3.org/1999/xlink" x="0px" y="0px"
	 viewBox="0 0 48 48" style="enable-background:new 0 0 48 48;" xml:space="preserve">
<style type="text/css">
	.st0{fill:#3661ED;}
</style>
<path class="st0" d="M31.7,26.4l-3.9-3.8c0.7-1.5,0.5-2.6-0.6-3.5s-2.2-0.9-3.1-0.3l-3.5-3.6c0.5-0.3,1-0.5,1.6-0.6
	c0.6-0.1,1.2-0.2,1.8-0.2c2.4,0,4.4,0.8,6,2.5c1.7,1.6,2.5,3.7,2.5,6c0,0.5-0.1,1.1-0.2,1.8C32.2,25.5,32,26,31.7,26.4z M39.1,33.9
	l-2.8-2.8c1.5-1.2,2.7-2.5,3.8-3.9c1.1-1.4,2-2.8,2.6-4.2c-1.7-3.7-4.2-6.6-7.5-8.8S28.4,11,24.5,11c-1.4,0-2.8,0.1-4.1,0.4
	c-1.3,0.2-2.3,0.5-2.9,0.8l-3.3-3.3c1.2-0.5,2.7-1,4.6-1.4s3.7-0.6,5.5-0.6c4.6,0,8.8,1.2,12.8,3.8s7.1,6,9.3,10.5
	c0.1,0.3,0.2,0.6,0.3,0.9s0.1,0.7,0.1,1c0,0.3,0,0.7-0.1,1s-0.1,0.6-0.3,0.9c-0.9,1.8-2,3.5-3.2,5S40.6,32.8,39.1,33.9z M39,44
	l-6.4-6.3c-1.2,0.5-2.5,0.8-4,1.1s-3,0.4-4.6,0.4c-4.7,0-9-1.3-13-3.8s-7.1-6-9.3-10.5c-0.1-0.3-0.2-0.6-0.3-0.9
	c0-0.3-0.1-0.6-0.1-1c0-0.3,0-0.7,0.1-1.1c0.1-0.4,0.2-0.7,0.2-0.9c0.7-1.4,1.6-2.8,2.6-4.2c1.1-1.4,2.3-2.7,3.6-4L3,8
	C2.7,7.7,2.5,7.3,2.5,6.8S2.7,5.9,3,5.5C3.4,5.2,3.8,5,4.3,5s0.9,0.2,1.3,0.5l36,36c0.3,0.3,0.5,0.7,0.5,1.2c0,0.5-0.2,0.9-0.5,1.2
	c-0.3,0.4-0.8,0.6-1.2,0.6S39.4,44.3,39,44z M10.8,15.7c-1.2,1-2.3,2.1-3.3,3.4S5.7,21.7,5.2,23c1.7,3.7,4.3,6.6,7.7,8.8
	S20.1,35,24.4,35c0.9,0,1.8,0,2.8-0.2c0.9-0.1,1.7-0.3,2.2-0.5l-3.2-3.2c-0.3,0.1-0.6,0.2-1,0.3c-0.4,0.1-0.8,0.1-1.2,0.1
	c-2.3,0-4.3-0.8-6-2.5c-1.7-1.6-2.5-3.6-2.5-6c0-0.4,0-0.8,0.1-1.1c0.1-0.4,0.1-0.8,0.2-1.1L10.8,15.7z"/>
</svg>
